<svg width="41" height="40" viewBox="0 0 41 40" fill="none" xmlns="http://www.w3.org/2000/svg">
<path d="M35.2998 31.285C35.2998 31.285 33.3204 33.1817 32.8353 33.7378C32.0451 34.5604 31.1141 34.9489 29.8936 34.9489C29.7763 34.9489 29.6511 34.9489 29.5338 34.9413C27.2101 34.7966 25.0508 33.913 23.4313 33.1589C19.0031 31.0717 15.1148 28.1086 11.8836 24.3533C9.21574 21.2227 7.43195 18.3281 6.25057 15.2203C5.52298 13.3236 5.25697 11.8458 5.37433 10.4519C5.45256 9.56067 5.80463 8.8218 6.45399 8.18957L9.12185 5.59209C9.50521 5.2417 9.91204 5.05127 10.311 5.05127C10.8039 5.05127 11.2029 5.34072 11.4533 5.58448C11.4611 5.59209 11.4689 5.59971 11.4768 5.60733C11.954 6.04151 12.4078 6.49093 12.885 6.97081C13.1276 7.21456 13.3779 7.45832 13.6283 7.70968L15.7641 9.78919C16.5934 10.5966 16.5934 11.3431 15.7641 12.1505C15.5372 12.3714 15.3182 12.5923 15.0913 12.8056C14.4341 13.4607 14.9504 12.9581 14.2697 13.5522C14.2541 13.5674 14.2384 13.5751 14.2306 13.5903C13.5578 14.2454 13.6829 14.8852 13.8238 15.3194C13.8316 15.3422 13.8394 15.3651 13.8472 15.388C14.4027 16.6981 15.1851 17.9321 16.3743 19.4022L16.3821 19.4099C18.5414 21.9997 20.8181 24.0183 23.3295 25.5646C23.6503 25.7626 23.9789 25.9226 24.2918 26.0749C24.5735 26.212 24.8395 26.3415 25.0663 26.4786C25.0976 26.4939 25.1289 26.5167 25.1602 26.532C25.4262 26.6615 25.6766 26.7224 25.9348 26.7224C26.5841 26.7224 26.991 26.3263 27.124 26.1968L28.6575 24.7037C28.9235 24.4447 29.346 24.1324 29.8389 24.1324C30.3239 24.1324 30.723 24.4295 30.9655 24.6885C30.9733 24.6961 30.9733 24.6961 30.9811 24.7037L35.292 28.9008C36.0978 29.6778 35.2998 31.285 35.2998 31.285Z" stroke="#111111" stroke-width="2" stroke-linecap="round" stroke-linejoin="round"/>
</svg>
