<svg width="52" height="51" viewBox="0 0 52 51" fill="none" xmlns="http://www.w3.org/2000/svg">
<path d="M38.6422 19.5343L28.1468 4.09398C27.6696 3.62609 26.9541 3.1582 26.2385 3.1582C25.5229 3.1582 24.8073 3.39215 24.3303 4.09398L13.8349 19.5343H2.38532C0.954128 19.5343 0 20.4701 0 21.8738C0 22.1077 0 22.3417 0 22.5756L5.9633 44.3325C6.44037 46.2041 8.34862 47.8417 10.4954 47.8417H41.5046C43.6514 47.8417 45.5596 46.438 46.0367 44.3325L52 22.5756C52 22.3417 52 22.1077 52 21.8738C52 20.4701 51.0459 19.5343 49.6147 19.5343H38.6422ZM19.0826 19.5343L26.2385 9.24077L33.3945 19.5343H19.0826ZM26.2385 38.2499C23.6147 38.2499 21.4679 36.1444 21.4679 33.571C21.4679 30.9977 23.6147 28.8921 26.2385 28.8921C28.8624 28.8921 31.0092 30.9977 31.0092 33.571C31.0092 36.1444 28.8624 38.2499 26.2385 38.2499Z" fill="#212121"/>
</svg>
